<?xml version="1.0" encoding="UTF-8"?> <svg xmlns="http://www.w3.org/2000/svg" width="186" height="53" fill="none"><g clip-path="url(#a)"><path fill="#3C3C3B" d="M77.6652 16.5808h-.9054V9.7695h.9454c-.0198.6268-.0404 1.4049-.0404 2.7696h3.1099V9.7695h.9462c-.0109.6767-.0403 1.6477-.0403 3.1036v3.7077h-.9059v-3.213h-3.1099l.0004 3.213ZM92.3083 13.1555c0-1.9104-.8554-2.7181-2.083-2.7181-1.2372 0-2.093.8583-2.093 2.7582 0 1.91.8558 2.7286 2.093 2.7286 1.228 0 2.083-.8693 2.083-2.7687Zm.9854 0c0 2.435-1.4077 3.5775-3.0688 3.5775-1.6704 0-3.0784-1.1117-3.0784-3.5374s1.408-3.5877 3.0784-3.5877c1.6607 0 3.0688 1.1117 3.0688 3.5476ZM100.543 9.608c.362 0 .714.0202 1.087.1013v.9191a3.6095 3.6095 0 0 0-1.148-.1906c-.7041 0-1.2168.3025-1.2168.9593 0 1.2431 2.7868 1.4146 2.7868 3.3351 0 1.3339-1.076 1.9911-2.4848 1.9911-.4332 0-.857-.0402-1.2877-.1318v-.8587c.4307.1006.8444.1508 1.2263.1508.8962 0 1.5402-.3324 1.5402-1.0598 0-1.466-2.7774-1.466-2.7774-3.3148 0-1.1628.9966-1.9003 2.2744-1.9003M108.172 12.8018c.252.0596.533.0908.765.0908.846 0 1.439-.3949 1.439-1.2033s-.554-1.2321-1.348-1.2321c-.765 0-.796.1415-.805.3033-.041.6572-.051 1.4551-.051 2.0421m.926.8583c-.302 0-.614-.0401-.926-.1106v3.031h-.905V9.77c.714 0 1.106-.1006 1.791-.1006 1.429 0 2.323.7075 2.323 1.9915 0 1.2731-.985 2.0004-2.283 2.0004M121.295 13.1555c0-1.9104-.855-2.7181-2.083-2.7181-1.237 0-2.093.8583-2.093 2.7582 0 1.91.856 2.7286 2.093 2.7286 1.228 0 2.083-.8693 2.083-2.7687Zm.986 0c0 2.435-1.408 3.5775-3.069 3.5775-1.67 0-3.079-1.1117-3.079-3.5374s1.409-3.5877 3.079-3.5877c1.661 0 3.069 1.1117 3.069 3.5476ZM128.624 15.6516c0 .2019.552.2725.916.2725 1.507 0 2.404-.7586 2.404-2.699 0-1.8995-.927-2.7278-2.404-2.7278-.675 0-.886.0904-.886.2822-.01.4249-.03 1.1214-.03 2.0519v2.8202Zm-.906-5.8824c.695 0 1.298-.0807 1.841-.0807 1.902 0 3.351.9905 3.351 3.4964 0 2.5474-1.53 3.5375-3.391 3.5375-.633 0-1.066-.1419-1.801-.1419V9.7692ZM139.664 9.3555a9.891 9.891 0 0 0 1.278-1.3643h1.046l-1.458 1.3643h-.866Zm1.701 4.3564c-.293-.8903-.604-1.7596-.946-2.5782-.333.8186-.685 1.7795-.976 2.5782h1.922Zm-3.915 2.8688c.866-2.0608 2.194-5.5475 2.606-6.8611h.806l2.475 6.8611H142.3c-.171-.5753-.462-1.4441-.683-2.0916h-2.456l-.764 2.0916h-.947ZM149.758 12.9229c.946 0 1.499-.4046 1.499-1.2933 0-.819-.633-1.1831-1.388-1.1831-.674 0-.723.1115-.723.2429-.041.6677-.051 1.6781-.051 2.2339h.663v-.0004Zm1.057-4.9317h.765c-.412.4342-.856.93-1.157 1.3643h-.775L148.5 7.9912h.835c.213.3037.494.6665.725.8693l.754-.8693h.001Zm2.193 8.5895h-1.046l-1.691-2.4455c-.22-.3434-.361-.4144-.593-.4144h-.584v2.8599h-.906V9.7695c.796 0 .976-.1006 1.752-.1006 1.358 0 2.294.6065 2.294 1.9104 0 .8891-.563 1.5455-1.378 1.8188l2.153 3.183-.001-.0004ZM159.694 9.608c.361 0 .713.0202 1.086.1013v.9191a3.5991 3.5991 0 0 0-1.147-.1906c-.704 0-1.218.3025-1.218.9593 0 1.2431 2.788 1.4146 2.788 3.3351 0 1.3339-1.079 1.9911-2.486 1.9911-.433 0-.856-.0402-1.288-.1318v-.8587c.432.1006.845.1508 1.228.1508.895 0 1.54-.3324 1.54-1.0598 0-1.466-2.778-1.466-2.778-3.3148 0-1.1628.996-1.9003 2.274-1.9003M171.286 16.5808h-.995l-2.506-3.0715c-.212-.2632-.353-.3134-.463-.3134v3.3849h-.905V9.7695h.945c-.02.6475-.04 1.7183-.04 3.0229.11 0 .262-.0616.563-.4346l2.124-2.5879h.966l-2.486 3.1328 2.798 3.6785-.001-.0004ZM177.236 9.3555a10.015 10.015 0 0 0 1.278-1.3643h1.046l-1.459 1.3643h-.865Zm1.701 4.3564c-.293-.8903-.605-1.7596-.947-2.5782-.332.8186-.683 1.7795-.975 2.5782h1.922Zm-3.915 2.8688c.866-2.0608 2.194-5.5475 2.606-6.8611h.806l2.475 6.8611h-1.036c-.171-.5753-.463-1.4441-.684-2.0916h-2.456l-.764 2.0916h-.947Z"></path><path fill="#878787" d="M79.6679 39.5083h.8724c-.3504.3608-.7097.759-.9741 1.1348h-.8953l-.9822-1.1348h.9507c.1481.2352.3266.4772.5062.6337l.5223-.6337Zm.6225 6.6414c-.3193.18-.7472.2425-1.1061.2425-1.4483 0-2.6872-.7821-2.6872-2.7379 0-1.9558 1.2933-2.7687 2.7413-2.7687.3436 0 .725.0393 1.052.1333v1.1105c-.3044-.1179-.6463-.2108-1.0588-.2108-.9269 0-1.5578.4845-1.5578 1.7284 0 1.2755.7238 1.7056 1.5646 1.7056.3977 0 .7174-.0551 1.052-.1958v.9929ZM84.2461 46.2825v-5.2722h3.1083v.9621c-.3124-.0386-1.0128-.0467-1.8694-.0467-.0787 0-.1336.0162-.1413.1565-.0077.2506-.0077.697-.0077.9702h1.7996v.9471H85.336v1.1648c0 .0872.0315.1727.149.1727.8796 0 1.3543-.0081 1.9304-.0316v.9775l-3.1693-.0004ZM92.9381 40.8857c.3964 0 .6927.0394 1.0039.0941v1.0712c-.2882-.1245-.6624-.1955-1.0435-.1955-.3811 0-.6309.1573-.6309.5085 0 .7358 1.978.885 1.978 2.3709 0 1.0878-.872 1.6583-2.0176 1.6583-.3496 0-.7633-.0386-1.1367-.1257v-.9929c.3822.1017.7096.1407 1.0988.1407.5126 0 .8638-.172.8638-.579 0-.9228-1.9699-.9066-1.9699-2.3613 0-.9633.8174-1.5884 1.8541-1.5884M102.548 46.2824h-1.2l-1.8146-2.3539c-.1094-.1415-.2103-.1723-.3112-.1723v2.5258h-1.0904v-5.2722h1.1138c-.0234.7431-.0234 1.494-.0234 2.2765.1086 0 .2256-.0552.3891-.2737l1.5187-2.0028h1.175l-1.712 2.4334 1.955 2.8392ZM106.932 40.6351c.39-.3519.771-.7505 1.044-1.1263h1.16l-1.207 1.1263h-.997Zm-.896 5.6477v-5.2723h3.108v.9621c-.312-.0385-1.012-.0466-1.869-.0466-.077 0-.134.0162-.141.1565-.007.2505-.007.6969-.007.9702h1.799v.9471h-1.799v1.1648c0 .0872.031.1727.148.1727.88 0 1.355-.0081 1.932-.0316v.9775l-3.171-.0004ZM119.773 43.4745c.476 0 .835-.2806.835-.8291 0-.4999-.32-.7821-.741-.7821-.319 0-.421.0551-.421.1171-.023.3439-.03 1.1028-.03 1.4941h.357Zm2.626 2.808h-1.262l-1.2-1.58c-.139-.2189-.241-.2659-.303-.2659h-.218v1.8459h-1.09v-5.2723c.73 0 .832-.0932 1.588-.0932 1.099 0 1.877.57 1.877 1.6582 0 .579-.327 1.1965-1.02 1.4l1.628 2.3073ZM126.043 46.2825v-5.2722h3.108v.9621c-.312-.0386-1.013-.0467-1.87-.0467-.077 0-.132.0162-.14.1565-.007.2506-.007.697-.007.9702h1.799v.9471h-1.799v1.1648c0 .0872.031.1727.147.1727.881 0 1.356-.0081 1.932-.0316v.9775l-3.17-.0004ZM134.315 43.3646c.14.0235.295.0398.428.0398.529 0 .896-.2271.896-.759 0-.4776-.264-.774-.747-.774s-.531.1249-.538.2502c-.024.3827-.039.782-.039 1.243m.709.9933c-.234 0-.483-.0385-.709-.1013v2.0255h-1.09v-5.2722c.552 0 1.16-.0856 1.69-.0856 1.261 0 1.939.6333 1.939 1.6899 0 1.2045-.887 1.7437-1.83 1.7437ZM144.704 41.0103c-.016.7906-.025 1.2519-.025 2.4099v2.6045c-1.019 0-1.113.3592-2.063.3592-.982 0-1.978-.5234-1.978-1.7827v-3.5909h1.121c-.007.3369-.031 1.6744-.031 2.3936v1.1576c0 .6105.413.8291.99.8291.607 0 .871-.2344.871-.399v-3.9813h1.115ZM150.621 45.4064c.475 0 .881-.2271.881-.7034 0-.3682-.343-.6885-1.014-.7517-.1-.0073-.217-.0158-.334-.0073v1.3294c0 .0856.156.133.467.133Zm-.467-2.4014h.195c.514 0 .879-.2266.879-.5952 0-.3284-.249-.5388-.7-.5388-.218 0-.335.0385-.342.101-.025.2513-.032.6973-.032 1.033Zm2.516 1.7758c0 .9779-.818 1.5561-2.049 1.5561-.514 0-.864-.0548-1.558-.0548v-5.2722c.631 0 1.068-.0856 1.511-.0856 1.192 0 1.815.5474 1.815 1.3842 0 .5554-.413.9227-.942 1.0955.747.1483 1.223.7893 1.223 1.3768ZM157.81 41.0103c-.016.7508-.031 1.2134-.031 2.3778v1.8079c0 .0855.039.1402.14.1402.95 0 1.472-.0154 1.807-.0385v.9848h-3.037v-5.2722h1.121ZM164.578 41.0103c-.024.7431-.024 1.5889-.024 2.3778v2.8944h-1.09v-5.2722h1.114ZM173.354 46.2824h-1.199l-1.815-2.3539c-.109-.1415-.21-.1723-.311-.1723v2.5258h-1.091v-5.2722h1.114c-.023.7431-.023 1.494-.023 2.2765.109 0 .225-.0552.389-.2737l1.519-2.0028h1.175l-1.712 2.4334 1.954 2.8388v.0004ZM177.856 46.2825v-2.1431c-.554-.9305-1.317-2.2052-1.87-3.1291h1.302c.295.6178.615 1.1891.973 1.7612.125.1946.125.2181.155.2181.04 0 .055-.0552.132-.195l1.029-1.7839h1.332c-.701 1.0095-1.527 2.285-1.963 3.0979v2.1743h-1.09v-.0004Z"></path><path fill="#3C3C3B" d="M107.336 26.6516c-4.137-1.3019-9.8577.0085-11.5294 3.3939-.0294.06.0017.1143.0683.1208 4.6821.4447 9.9731-.0479 11.5261-3.3663.028-.0608-.001-.1277-.065-.148v-.0004Zm-26.7831 5.7316c-.7754 1.6813-.2935 4.6252-1.9457 5.4259-.0602.0292-.1558.0199-.2099-.0194-1.7156-1.2484-1.3778-4.4533-1.6131-6.7436-.0069-.0669-.0489-.1614-.0929-.2121-.7508-.8583-1.4318-1.7859-1.454-3.3752.1526-.6284.8489-.7107 1.4205-.9191.063-.0227.1199-.0981.1276-.1646.3254-2.8097.4364-5.8107.1913-8.0382-.0044-.0409.0364-.1338.1353-.15 3.2798-.5372 4.3278 2.4436 4.0824 6.0094-.0041.0604.0569.1707.1485.1289 2.6966-.898 8.4526-4.6507 9.2159.1241.0105.0664-.0278.1492-.0847.1844-2.6627 1.6457-5.943 2.6698-8.8014 4.118-.0597.0304-.0553.069.0093.0856 3.8038.9819 7.1156 1.417 11.4588 1.6951.067.004.0993-.0426.075-.1054-1.9198-4.9325 5.4634-9.3939 11.3582-7.7827.645.1759 1.058.8258 1.726 1.1555 2.583 1.2738 4.511 2.126 4.599 4.8854.002.0669-.014.1736-.036.2364-1.742 4.9289-11.7228 6.9471-16.5443 3.6145-.0553-.0386-.1494-.0483-.2111-.0228-4.0065 1.67-9.5139.1622-13.3815-.2282-.0666-.0069-.1457.0369-.1736.0977l.0004.0004ZM153.048 25.7603c1.387.0133 3.539-.5705 4.761-1.2877.058-.0341.05-.0738-.015-.0859-1.673-.3082-4.003.1147-4.802 1.2686-.038.0551-.011.1046.056.105Zm18.815.4942c-.268.5862-.739.9682-1.046 1.5143-.033.0588-.005.0957.061.0859.691-.105 1.651.06 1.941-.4459.034-.0584.002-.1383-.048-.1821-.317-.2765-.383-.8056-.752-1.0306-.057-.0349-.128-.0028-.156.0584Zm6.768 5.0168c.16 1.2321 2.095 3.6108 1.028 4.9857-.041.0531-.131.1078-.197.1188-.905.1524-1.402-.7809-2.261-1.1385-.062-.026-.072-.0791-.026-.1277 1.042-1.0874-.801-2.5567-1.377-3.6583-.031-.0596-.107-.1009-.173-.092-4.219.5907-8.665-.1589-10.554 2.7683-.036.0568-.118.1038-.184.0957-.654-.0795-.668-.8024-1.115-1.091-.056-.0361-.161-.0519-.228-.0458-3.957.3535-7.331.5132-10.882-.3665-.065-.0163-.153.0125-.191.0677-.711 1.0294.042 2.5611-1.344 2.9548-.064.0182-.153-.0114-.197-.0625-2.699-3.1656-1.416-6.9937-.496-11.2698.137-.6378.266.0324.768-.193.408-.4671-.457-.8222-.192-1.7332 1.656-2.7497 12.777-1.0444 12.08 2.3109-.34 1.6335-6.39 2.7886-8.053 3.4661-.58.2359-1.134.8623-1.803 1.1166-.062.0239-.062.0563.001.0762 2.763.855 6.802.4289 10.309.5368.067.002.154-.0398.193-.0933 2.086-2.7991 4.136-5.6335 6.185-8.4703.039-.0543.07-.1537.061-.2202-.083-.6633-.665-.8262-.748-1.4899-.008-.0665.045-.1257.112-.1298 2.812-.1646 5.311 1.462 4.335 3.9404-.025.0625-.031.1642-.011.2283.44 1.3801 1.463 2.1747 2.026 3.4308.027.0612.102.1127.169.1139 3.257.058 6.627-.5112 9.731-.0219.066.0102.144.0677.172.1281 1.461 3.1547-4.391 3.4762-7.027 3.7312-.067.0065-.119.0661-.11.133l-.001.0004ZM132.148 29.7656c4.612-.1658 9.732-.5911 12.819-2.8133.055-.0393.05-.0957-.01-.1248-4.398-2.1075-11.711-.8146-12.895 2.8266-.021.0637.019.114.086.1115Zm16.561-1.7291c.191.9726-.098 2.0835-1.726 3.0813-2.641 1.6185-11.979 3.8358-15.532 1.9258-1.751-.941-3.038-3.5946-2.684-5.7771.356-2.1974 3.921-4.602 6.711-5.0071 4.946-.718 9.335 1.0582 11.697 3.2739.535.5023 1.408 1.865 1.534 2.5036M124.986 33.7861c-1.546-.9329-1.558-3.3566-1.616-5.4024-.002-.0673-.052-.0965-.111-.0649-2.104 1.1219-4.883 2.4813-6.904.4156-.047-.0478-.104-.0373-.127.0259-.672 1.848-.36 4.6836-1.776 5.7852-.053.0409-.147.049-.207.0195-4.959-2.4375-.155-9.3563-.454-12.9225-.006-.0673.042-.1224.109-.122 2.919.002 3.611 2.4359 3.528 4.502-.003.0673.048.111.114.0985 1.757-.3451 2.946-.8372 4.29-1.7101 1.157-.7517 2.414-2.4136 3.643-2.5036 1.335-.0981 3.306 1.5917 3.068 2.5036-.285 1.0954-1.19 2.8611-1.725 4.8145-.519 1.8954-.416 4.1784-1.609 4.5883-.063.0219-.165.0081-.222-.0268l-.001-.0008ZM33.0164 52.9999l-19.0245-6.2762v-18.969L6.909 22.3154S-2.5346 17.7125.6597 7.2514l19.5807 15.6223v19.9441L33.016 52.9995l.0004.0004Z"></path><path fill="#878787" d="M12.175 45.4866s-4.3945-1.848-4.1079-8.097l4.1079 2.2745v5.8225Z"></path><path fill="#555454" d="M12.1747 36.5002s-5.2413-2.2238-4.8978-9.7414l4.8978 2.735v7.0064Z"></path><path fill="#878787" d="M5.9152 33.356S.1208 30.9003.5035 22.5938l5.4117 3.0225v7.7397Z"></path><path fill="#3C3C3B" d="m37.1426 52.9999 19.024-6.2761v-18.969l7.0825-5.4393s9.4432-4.6025 6.2494-15.0635L49.9177 22.874v19.9442L37.1426 52.9999Z"></path><path fill="#878787" d="M57.9834 45.4866s4.3948-1.848 4.1082-8.097l-4.1082 2.2745v5.8225Z"></path><path fill="#555454" d="M57.9834 36.5002s5.2421-2.2238 4.8978-9.7414l-4.8978 2.735v7.0064Z"></path><path fill="#878787" d="M64.2432 33.3565s5.7947-2.4561 5.4112-10.7623l-5.4112 3.0226v7.7397Z"></path><path fill="#555454" d="m33.1931 44.3672-4.1667 2.4825 6.1088 4.9645 6.1092-4.9645-4.1675-2.4825h-3.8838ZM36.7227 41.9909l6.003 3.3335 4.6266-3.3335V29.9321s-6.3971-.1533-6.674 5.3558c0 0 .2176 4.1224-3.602 4.6106l-.3536 2.0924ZM33.5452 41.9909l-6.0031 3.3335-4.6261-3.3335V29.9321s6.3963-.1533 6.6744 5.3558c0 0-.2172 4.1224 3.6016 4.6106l.3532 2.0924Z"></path><path fill="#878787" d="M22.9164 22.4146v3.273s8.5664-.1135 9.7464 8.3949h4.943c1.1804-8.5084 9.7464-8.3949 9.7464-8.3949v-3.273H22.9164Z"></path><path fill="#F9B233" d="M46.6641 7.272s-1.3992-1.5487-2.5961.3913c0 0-.3253-.4723-.995-1.1502.1857-.1488.3059-.3747.3059-.6309 0-.448-.3616-.8113-.8073-.8113-.2846 0-.5329.1488-.677.3722a15.2658 15.2658 0 0 0-.7024-.5425c.1223-.1423.197-.3239.197-.5254 0-.4484-.3613-.8105-.8077-.8105-.3201 0-.5946.189-.7246.461a16.3203 16.3203 0 0 0-.7392-.4074.799.799 0 0 0 .0784-.3422c0-.4476-.3609-.8113-.8078-.8113-.3274 0-.6083.1974-.7347.4796-.5732-.2307-1.1916-.4358-1.8444-.6134.369-.2173.6209-.6154.6209-1.0772 0-.6913-.6072-1.2528-1.295-1.2528-.6879 0-1.2954.5615-1.2954 1.2528 0 .4618.2515.8603.6212 1.0772-.6535.1776-1.2707.3827-1.844.6134-.1279-.2817-.4085-.4796-.7363-.4796-.4452 0-.8069.3633-.8069.8113 0 .1228.029.2376.0771.3422-.2559.133-.5022.2696-.7371.4074-.1304-.272-.4057-.461-.7258-.461-.4457 0-.8074.3625-.8074.8105 0 .2015.0751.3831.197.5254-.2515.1829-.4844.3641-.7024.5425-.1437-.2234-.3924-.3722-.677-.3722-.4464 0-.8085.3633-.8085.8113 0 .2562.1223.482.3072.6309-.6693.6779-.9955 1.1502-.9955 1.1502-1.1965-1.9404-2.5952-.3913-2.5952-.3913.0896-.8453-.6891-2.8692-.6891-2.8692v15.7065h24.4361V4.4028s-.7795 2.024-.689 2.8692Zm-11.529-3.378c.706 0 1.2792.5749 1.2792 1.2844s-.5728 1.2848-1.2792 1.2848c-.7065 0-1.2793-.5753-1.2793-1.2848 0-.7095.5728-1.2844 1.2793-1.2844Zm-9.5345 14.8672c-.8776 0-1.5888-.6349-1.5888-1.4182 0-.7833.7112-1.4182 1.5888-1.4182.8776 0 1.5893.6345 1.5893 1.4182s-.7113 1.4182-1.5893 1.4182Zm6.1747-3.7271c-.767.1938-3.5722.0454-3.6307.0434l-.331-.0069c.1724-.2182.2894-.6163.2894-1.0769 0-.6916-.2616-1.2524-.5841-1.2524-.3225 0-.5849.5608-.5849 1.2524 0 .457.1154.8527.2866 1.072-.8102-.0097-3.363-.1914-3.6941-2.0872 0 0 .0053-1.1307.5377-.4212 0 0 .3751 1.1591.7642.9706.3791-.1829.4299-.236.9381.1301 0 0 .6387-1.0099-.8654-1.1007 0 0 1.0382-6.052 7.8006-8.7319 0 0-.8364 1.3465.6055 3.2001 0 0 .1643.36.2152.6366-.748-.528-2.2893-1.3578-3.9924-.7813 0 0-3.2871 1.1875-1.2401 4.3446 0 0 .635.8685 2.0475.8105 0 0 .8364.0292.7492.521 0 0 .2931.105-.2858.0093 0 0-1.3289-.5303-1.3866 1.0055 0 0 .6632-.4079 1.1242-.2036 0 0 1.3555.5794 1.3265-.8112 0 0-.0287-.3183-.0872-.579 0 0-.2588-1.072.8372-1.1299 0 0 .8942.0292.9797.5797 0 0 .5624 2.4902-1.5311 3.4746l-.2878.1314-.0004.0004Zm3.3594 4.0819c-1.6874 0-3.0538-.7938-3.0538-1.773 0-.9791 1.3668-1.7729 3.0538-1.7729 1.6869 0 3.0546.7938 3.0546 1.7729 0 .9792-1.3677 1.773-3.0546 1.773Zm9.534-.3548c-.8776 0-1.5893-.6349-1.5893-1.4182 0-.7833.7113-1.4182 1.5893-1.4182.878 0 1.5893.6345 1.5893 1.4182s-.7113 1.4182-1.5893 1.4182Zm-1.6192-3.6959c.1708-.2193.2859-.615.2859-1.072 0-.6916-.2612-1.2524-.5846-1.2524-.3233 0-.5841.5608-.5841 1.2524 0 .4606.1171.8587.2903 1.0769l-.3319.0069c-.0577.002-2.8641.1504-3.6302-.0434l-.2887-.1314c-2.0934-.9844-1.5311-3.4746-1.5311-3.4746.0856-.5505.9809-.5797.9809-.5797 1.0944.0579.8364 1.1299.8364 1.1299-.0585.2607-.0871.579-.0871.579-.0291 1.3906 1.326.8112 1.326.8112.4618-.2043 1.1243.2036 1.1243.2036-.0574-1.5354-1.3859-1.0055-1.3859-1.0055-.5796.0957-.2866-.0093-.2866-.0093-.0863-.4918.7505-.521.7505-.521 1.4132.0576 2.0474-.8105 2.0474-.8105 2.0475-3.157-1.2401-4.3446-1.2401-4.3446-1.7031-.5765-3.2451.253-3.9931.7813.0516-.2765.2151-.6366.2151-.6366 1.4424-1.8536.6051-3.2.6051-3.2 6.7632 2.6795 7.8011 8.7318 7.8011 8.7318-1.5041.0912-.8651 1.1007-.8651 1.1007.5074-.3661.5583-.3134.9377-.1301.3888.1885.7634-.9706.7634-.9706.5341-.7091.5381.4212.5381.4212-.3298 1.8958-2.8831 2.0775-3.6932 2.0872l-.0005-.0004Z"></path></g><defs><clipPath id="a"><path fill="#fff" d="M0 0h186v53H0z"></path></clipPath></defs></svg> 